<?xml version="1.0" standalone="no"?>
<!DOCTYPE svg PUBLIC "-//W3C//DTD SVG 20010904//EN"
 "http://www.w3.org/TR/2001/REC-SVG-20010904/DTD/svg10.dtd">
<svg version="1.0" xmlns="http://www.w3.org/2000/svg"
 width="198.000000pt" height="275.000000pt" viewBox="0 0 198.000000 275.000000"
 preserveAspectRatio="xMidYMid meet">

<g transform="translate(0.000000,275.000000) scale(0.100000,-0.100000)"
fill="#000000" stroke="none">
<path d="M1055 2562 c-11 -11 -120 -30 -130 -23 -5 5 -17 9 -25 9 -8 0 -25 4
-36 7 -18 5 -24 1 -35 -27 -7 -18 -12 -39 -12 -45 0 -7 -6 -13 -14 -13 -9 0
-13 -7 -11 -17 3 -11 -11 -32 -34 -55 -31 -29 -38 -44 -38 -73 0 -29 -3 -36
-15 -31 -8 3 -15 0 -16 -7 -1 -7 -4 -1 -8 13 -8 29 -41 41 -41 15 0 -12 -6
-16 -20 -12 -14 3 -24 -1 -31 -15 -13 -24 -5 -48 16 -48 8 0 15 -6 15 -13 0
-19 37 -50 49 -42 7 3 11 -3 11 -15 0 -14 5 -20 13 -17 8 3 12 -5 11 -24 -1
-35 -8 -43 -30 -35 -13 5 -14 9 -5 20 7 9 8 17 3 20 -16 9 -29 -17 -26 -51 1
-18 -2 -33 -7 -33 -13 0 -11 -38 2 -46 8 -5 6 -10 -5 -16 -33 -19 -17 -31 33
-24 l50 7 -15 -31 c-9 -16 -19 -30 -24 -30 -4 0 -10 -9 -13 -21 -3 -12 -10
-18 -15 -15 -6 3 -22 2 -36 -4 -19 -7 -26 -17 -26 -36 0 -19 4 -25 15 -20 9 3
15 0 15 -10 0 -21 30 -14 44 11 26 47 44 65 49 51 3 -8 -1 -22 -8 -33 -9 -11
-12 -30 -9 -51 4 -18 1 -38 -5 -46 -8 -10 -8 -16 4 -26 21 -18 45 -5 45 25 0
14 5 25 10 25 6 0 10 -4 10 -10 0 -5 12 -10 26 -10 24 0 25 2 19 33 -4 17 -14
38 -23 44 -8 7 -13 16 -9 19 3 4 25 -11 48 -33 l41 -40 -32 -57 c-18 -32 -39
-60 -46 -63 -20 -8 -17 -33 10 -78 20 -32 26 -37 31 -23 4 9 4 22 0 28 -10 17
11 11 39 -11 27 -21 46 -18 46 7 0 11 4 12 19 2 15 -9 26 -8 55 6 20 9 36 21
36 26 0 6 12 10 28 10 17 0 41 12 62 33 20 17 51 45 69 60 28 23 32 32 27 57
-4 23 -1 32 14 40 33 18 24 47 -20 70 -43 22 -71 25 -86 10 -6 -6 -18 -8 -27
-4 -15 5 -14 9 7 25 13 10 31 19 39 19 25 0 40 25 22 40 -13 11 -12 16 6 41
32 45 89 158 89 177 0 9 7 26 15 36 18 24 19 70 2 84 -19 16 -237 19 -264 4
-19 -11 -23 -10 -23 1 0 8 7 20 16 28 14 12 14 14 -1 25 -15 11 -11 17 31 56
25 23 55 49 66 56 11 8 18 23 16 35 -1 12 1 28 6 35 4 7 5 16 2 19 -7 7 -55
11 -61 5z"/>
<path d="M652 2527 c-6 -7 -32 -23 -57 -36 -46 -23 -51 -34 -48 -118 1 -7 -4
-13 -11 -13 -6 0 -22 -9 -36 -19 -20 -16 -22 -21 -11 -35 9 -10 11 -25 6 -43
-5 -16 -7 -36 -6 -45 1 -9 -7 -36 -18 -59 -26 -52 -19 -62 14 -23 23 27 49 92
43 111 -1 4 4 19 11 32 7 12 11 31 8 40 -3 13 5 21 29 30 19 7 34 19 34 28 0
9 3 13 7 10 10 -11 43 24 43 45 0 10 6 18 13 18 8 0 13 16 15 45 2 46 -13 60
-36 32z"/>
<path d="M600 2172 c0 -10 41 -35 47 -28 8 8 -8 27 -18 21 -5 -4 -9 -1 -9 4 0
6 -4 11 -10 11 -5 0 -10 -3 -10 -8z"/>
<path d="M573 2051 c-18 -9 -33 -22 -33 -28 0 -19 11 -16 45 11 37 30 31 39
-12 17z"/>
<path d="M630 1904 c0 -8 5 -12 10 -9 6 3 10 10 10 16 0 5 -4 9 -10 9 -5 0
-10 -7 -10 -16z"/>
<path d="M1233 1797 c-16 -16 -19 -28 -12 -44 9 -24 8 -25 -45 -65 -26 -20
-27 -22 -11 -34 14 -10 16 -22 11 -53 -5 -33 -3 -41 13 -46 21 -6 41 -52 41
-92 0 -24 -20 -75 -42 -105 -10 -15 -8 -22 14 -45 27 -29 68 -100 68 -118 0
-15 63 -55 88 -55 12 0 31 9 42 20 11 11 30 20 43 20 12 0 42 10 67 21 39 19
43 22 25 29 -15 7 -16 9 -4 9 9 1 22 -6 29 -14 13 -16 60 -21 60 -6 0 5 -6 14
-14 20 -25 21 -49 81 -37 95 8 9 4 19 -14 36 -14 13 -25 29 -25 35 0 13 -42
55 -54 55 -4 0 -14 7 -22 15 -9 8 -24 15 -34 15 -23 0 -47 33 -54 76 -3 17
-12 44 -20 60 -8 15 -18 51 -21 79 -5 40 -14 58 -39 83 l-33 32 -20 -23z"/>
<path d="M1102 1624 c-12 -8 -22 -22 -22 -31 0 -8 -6 -13 -13 -10 -18 7 -39
-12 -59 -53 -28 -60 -29 -71 -8 -100 11 -15 20 -36 20 -45 0 -11 5 -15 14 -12
10 4 12 0 9 -14 -7 -24 -2 -24 41 1 l35 19 -10 -26 c-5 -14 -7 -28 -5 -31 3
-2 -1 -14 -9 -26 -20 -27 -19 -56 1 -56 12 0 10 -6 -10 -21 -32 -25 -32 -36
-2 -73 16 -19 28 -26 37 -21 12 7 12 6 1 -6 -11 -12 -16 -10 -33 10 -14 17
-23 21 -31 13 -7 -7 -4 -15 11 -28 11 -10 21 -24 21 -31 0 -18 29 -43 52 -43
30 0 73 35 92 75 23 47 8 100 -44 160 -22 26 -40 53 -40 62 0 8 12 36 26 62
34 59 28 116 -12 132 -23 8 -25 14 -22 56 3 51 -6 61 -40 37z"/>
<path d="M334 1540 c-34 -15 -50 -17 -85 -9 -39 9 -45 8 -61 -13 -9 -13 -15
-31 -12 -41 4 -11 -6 -31 -25 -53 -40 -45 -42 -87 -4 -111 16 -10 34 -23 41
-30 18 -17 27 -16 43 3 10 13 26 14 88 8 48 -4 79 -12 84 -20 4 -8 16 -14 26
-14 19 0 51 30 51 48 0 6 10 12 23 14 12 2 22 10 22 18 0 8 5 18 12 23 19 12
-7 67 -32 67 -18 0 -20 5 -17 34 3 30 0 36 -26 50 -16 8 -32 22 -35 31 -8 20
-42 18 -93 -5z"/>
<path d="M1536 1174 c-10 -7 -39 -16 -65 -20 -27 -4 -51 -14 -59 -25 -17 -24
-107 -27 -116 -4 -8 23 -26 18 -26 -8 0 -21 -32 -58 -83 -97 -10 -7 -43 -15
-74 -16 -30 -1 -57 -5 -60 -7 -3 -3 3 -20 13 -37 16 -25 16 -32 5 -39 -7 -5
-10 -14 -6 -20 4 -7 2 -18 -5 -26 -9 -10 -7 -16 6 -23 15 -8 16 -15 5 -57 -12
-49 -4 -75 24 -75 8 0 15 -6 18 -12 3 -9 14 -4 34 14 17 16 50 32 78 39 68 15
163 20 170 9 9 -15 38 1 88 49 41 39 47 50 41 74 -7 34 20 62 69 73 44 9 50
14 36 30 -10 12 -7 20 14 42 33 34 33 43 6 98 -23 46 -54 63 -64 35 -6 -15 -7
-15 -19 0 -10 15 -14 15 -30 3z"/>
<path d="M807 1139 c-8 -30 1 -47 31 -58 15 -5 21 -10 15 -10 -7 -1 -13 -7
-13 -15 0 -8 -16 -23 -35 -35 -19 -11 -35 -26 -35 -34 0 -16 41 -17 55 -1 6 6
20 14 33 17 19 4 22 2 17 -13 -3 -10 -2 -21 3 -24 12 -7 7 -99 -8 -125 -11
-21 -123 -81 -151 -81 -8 0 -27 -11 -44 -25 -28 -23 -29 -24 -7 -25 26 0 29
-15 5 -25 -17 -6 -17 -7 1 -21 14 -10 23 -11 33 -3 9 8 13 8 13 0 0 -13 46
-15 54 -2 10 16 56 19 57 5 1 -8 3 -18 4 -24 1 -5 3 -15 4 -20 1 -12 53 -2 62
13 8 12 29 0 29 -17 0 -17 55 -56 79 -56 11 0 25 9 31 19 5 11 25 25 44 31 33
10 34 13 29 48 -5 36 -12 45 -49 68 -16 9 -17 16 -7 59 10 45 9 50 -10 67 -19
15 -20 19 -7 27 8 6 11 13 7 17 -4 4 0 16 10 26 15 17 15 19 0 36 -20 22 -22
52 -4 52 47 1 46 77 -1 101 -27 14 -113 19 -122 8 -3 -4 -15 -9 -27 -13 -19
-6 -22 -4 -16 11 3 10 2 15 -2 11 -5 -5 -14 1 -22 12 -18 26 -49 26 -56 -1z"/>
<path d="M1703 1020 c-13 -5 -23 -15 -23 -23 0 -21 -41 -54 -80 -64 -30 -8
-36 -14 -41 -46 -3 -21 -17 -49 -30 -63 -25 -26 -34 -89 -17 -111 5 -6 8 -20
6 -30 -2 -14 2 -17 17 -13 11 2 45 5 75 5 51 0 56 -2 75 -32 23 -37 69 -45 91
-15 21 27 17 45 -8 39 l-23 -6 22 18 c14 12 32 17 48 14 20 -4 25 -1 25 16 0
12 15 35 34 51 19 17 34 40 35 53 0 12 4 46 7 75 6 49 4 56 -22 84 -50 52
-131 72 -191 48z"/>
<path d="M1457 754 c-31 -26 -48 -29 -77 -14 -41 22 -66 -69 -36 -129 14 -27
12 -65 -5 -87 -5 -6 -6 -14 -3 -17 12 -11 -7 -77 -21 -77 -23 0 -24 -14 -5
-38 18 -21 21 -22 47 -9 15 7 35 12 45 10 9 -2 19 1 23 6 10 16 38 13 32 -3
-9 -22 4 -27 27 -12 31 20 85 25 133 14 37 -9 49 -7 97 16 30 14 62 26 70 26
9 0 16 4 16 10 0 5 17 21 39 34 28 18 40 33 43 55 3 17 3 33 1 34 -2 2 -24 1
-51 -3 -62 -10 -112 -2 -105 16 9 25 -15 15 -50 -21 -28 -29 -41 -35 -75 -35
-48 0 -77 29 -87 90 -4 21 -13 41 -21 44 -15 6 -19 32 -6 38 4 2 5 20 2 40
l-5 37 -28 -25z"/>
<path d="M1280 740 c-8 -5 -29 -10 -47 -10 -22 0 -41 -9 -62 -31 -34 -33 -38
-45 -18 -52 7 -2 -9 -23 -40 -52 -28 -26 -49 -53 -47 -60 8 -19 -40 -24 -110
-13 -68 12 -122 -1 -113 -26 7 -18 -18 -40 -34 -31 -14 9 -29 -12 -29 -41 0
-11 -16 -34 -36 -50 -19 -16 -47 -42 -62 -58 -50 -55 -74 -76 -83 -70 -13 8
-49 -15 -49 -31 0 -17 26 -20 35 -5 8 13 55 -10 55 -28 0 -9 6 -12 16 -8 9 3
18 6 20 6 2 0 4 13 4 30 0 20 4 28 13 24 7 -2 22 4 33 14 11 11 38 22 59 26
22 4 46 12 53 18 8 7 12 7 12 -1 0 -6 18 -23 41 -38 l41 -27 18 24 c10 14 21
43 25 67 4 27 10 40 18 37 7 -2 32 2 56 11 44 15 64 11 103 -22 10 -9 18 -10
22 -4 4 6 18 6 41 0 42 -12 62 -4 44 17 -9 11 -7 14 9 14 20 0 20 1 -4 25 -32
33 -28 57 14 70 30 8 32 12 26 42 -4 21 -1 39 6 48 11 13 10 23 0 55 -8 24
-11 59 -7 90 6 51 3 57 -23 40z"/>
<path d="M1570 641 c-26 -8 -28 -27 -9 -63 15 -27 70 -23 91 7 18 24 15 55 -6
55 -6 0 -20 2 -31 4 -11 3 -31 1 -45 -3z"/>
<path d="M1354 369 c-3 -6 0 -15 7 -20 21 -14 53 -6 57 14 3 13 -3 17 -27 17
-16 0 -33 -5 -37 -11z"/>
</g>
</svg>
