<?xml version="1.0" standalone="no"?>
<!DOCTYPE svg PUBLIC "-//W3C//DTD SVG 20010904//EN"
 "http://www.w3.org/TR/2001/REC-SVG-20010904/DTD/svg10.dtd">
<svg version="1.0" xmlns="http://www.w3.org/2000/svg"
 width="500.000000pt" height="600.000000pt" viewBox="0 0 500.000000 600.000000"
 preserveAspectRatio="xMidYMid meet">
<metadata>
Created by potrace 1.15, written by Peter Selinger 2001-2017
</metadata>
<g transform="translate(0.000000,600.000000) scale(0.100000,-0.100000)"
fill="#000000" stroke="none">
<path d="M1875 5244 c-81 -10 -141 -22 -160 -33 -28 -16 -30 -21 -33 -86 -2
-38 -8 -75 -14 -82 -6 -8 -34 -13 -72 -13 -33 0 -72 -6 -86 -13 -22 -11 -25
-19 -25 -64 1 -43 7 -61 40 -109 49 -71 85 -94 148 -94 61 0 101 -26 118 -78
9 -29 50 -100 86 -151 2 -3 34 25 71 61 37 36 94 82 127 103 33 21 77 53 98
71 20 19 42 34 49 34 6 0 30 9 52 19 23 11 79 36 124 55 112 47 132 61 132 92
l0 27 -82 -6 c-46 -4 -117 -9 -158 -13 -92 -8 -96 -5 -110 97 -11 78 -38 145
-70 174 -27 24 -83 26 -235 9z"/>
<path d="M2613 5009 c-40 -12 -56 -40 -51 -91 3 -38 2 -41 -36 -60 -21 -11
-48 -28 -58 -38 -25 -23 -118 -57 -180 -65 -25 -3 -61 -17 -80 -30 -18 -13
-69 -48 -113 -78 -44 -30 -109 -84 -144 -120 -62 -64 -63 -66 -52 -98 32 -91
9 -134 -118 -223 -68 -48 -82 -55 -113 -50 -31 5 -41 1 -95 -47 -74 -65 -92
-87 -133 -165 -18 -32 -59 -84 -91 -115 -68 -65 -73 -88 -29 -136 36 -40 56
-41 82 -8 22 28 87 65 114 65 9 0 37 -19 62 -41 64 -57 101 -73 146 -65 51 10
60 32 51 137 l-6 87 53 40 c62 46 112 59 265 69 l104 6 -7 -41 c-5 -31 -2 -48
11 -68 16 -25 16 -28 -9 -76 -31 -60 -32 -70 -6 -93 11 -10 20 -23 20 -30 0
-6 11 -22 25 -35 13 -13 32 -42 41 -66 15 -40 15 -46 1 -77 -9 -18 -21 -53
-26 -77 -6 -25 -17 -65 -26 -89 -21 -61 -19 -79 16 -157 37 -84 82 -134 120
-134 14 0 38 -9 52 -20 21 -16 40 -20 109 -20 l83 1 24 51 c20 42 23 60 17
109 -5 54 -4 59 14 59 53 0 234 81 256 115 13 20 14 40 4 147 -6 67 -16 128
-22 135 -7 9 -6 23 6 47 19 40 29 49 94 84 108 59 129 71 141 86 14 17 43 21
55 9 13 -13 105 -9 111 5 2 6 13 12 23 12 10 0 27 9 37 20 14 16 31 20 82 20
35 0 80 -7 100 -15 50 -21 90 -19 98 4 3 10 24 31 47 46 33 22 47 26 77 20 20
-3 65 -9 101 -13 l65 -7 6 -37 c7 -46 25 -68 55 -68 32 0 143 62 179 100 27
28 30 39 33 110 4 74 2 81 -22 104 -20 21 -35 26 -75 26 -66 0 -91 23 -131
123 -26 63 -42 86 -88 127 l-56 50 37 38 c37 38 51 92 27 107 -6 4 -28 30 -50
60 -55 75 -97 99 -158 90 -48 -6 -48 -6 -107 51 -33 31 -82 74 -110 94 -27 21
-61 49 -74 64 -15 16 -35 26 -52 26 -15 0 -99 -20 -186 -44 -223 -61 -231 -62
-289 -33 -27 14 -74 41 -104 61 -57 37 -87 42 -147 25z"/>
<path d="M3384 3849 c-31 -35 -101 -79 -125 -79 -13 0 -38 -14 -56 -32 -36
-35 -89 -67 -200 -123 -48 -23 -73 -42 -73 -53 0 -9 5 -66 10 -126 10 -102 9
-111 -11 -152 -24 -50 -37 -59 -117 -80 -30 -8 -75 -23 -98 -33 l-42 -19 -7
-111 c-6 -80 -12 -114 -22 -119 -12 -7 -12 -13 2 -38 20 -38 19 -57 -5 -101
-24 -45 -27 -145 -5 -183 20 -35 20 -35 -30 -55 -25 -9 -50 -25 -55 -35 -6
-10 -10 -88 -10 -172 1 -186 8 -203 96 -252 80 -44 101 -83 105 -196 7 -177 2
-214 -32 -251 -30 -34 -30 -35 -24 -120 3 -47 3 -93 -1 -102 -3 -9 -30 -34
-60 -57 -30 -22 -54 -48 -54 -57 0 -9 24 -39 53 -68 l52 -52 148 -6 c160 -6
148 -9 214 52 24 21 34 23 99 19 63 -3 77 -7 102 -31 15 -15 33 -27 38 -27 6
0 29 16 51 35 40 34 44 35 122 35 97 0 174 15 193 38 8 9 20 36 26 58 10 33
23 49 69 80 32 22 65 54 74 72 9 17 22 38 28 46 15 18 5 41 -25 61 -23 15 -86
135 -119 225 -7 19 -31 77 -54 128 l-42 93 23 27 c13 16 46 75 74 133 185 374
167 330 159 403 l-7 66 -49 0 c-38 0 -72 11 -156 51 -115 55 -153 82 -153 110
0 20 47 39 95 39 55 0 159 37 187 67 56 58 74 147 38 183 -26 26 -36 25 -99
-6 -28 -15 -55 -24 -58 -20 -6 5 9 35 127 261 76 146 75 155 -34 220 l-60 35
-22 -21 c-18 -17 -29 -19 -60 -13 -63 11 -84 30 -84 75 0 21 9 62 20 90 12 28
19 57 17 62 -2 6 -30 16 -63 23 -32 6 -66 14 -75 18 -9 4 -23 -1 -35 -15z"/>
<path d="M2263 2938 c-12 -19 -81 -222 -99 -293 -19 -73 -76 -168 -112 -186
-32 -16 -115 -70 -122 -79 -3 -4 -27 -19 -55 -35 -27 -15 -70 -47 -95 -70 -70
-65 -104 -85 -147 -85 -21 -1 -76 -6 -122 -13 -84 -13 -85 -13 -127 -72 -14
-19 -15 -19 -38 10 -33 40 -54 27 -80 -53 -12 -33 -30 -73 -42 -89 -20 -27
-23 -27 -56 -15 -54 19 -85 15 -104 -13 l-16 -24 -49 33 -48 34 -63 -31 -63
-32 -1 -83 c0 -45 -5 -87 -11 -93 -5 -5 -41 -17 -79 -25 -38 -7 -100 -29 -140
-48 l-71 -34 -7 -56 c-3 -32 -4 -62 -1 -67 4 -5 59 -9 123 -9 129 0 150 -7
171 -58 7 -16 11 -47 9 -68 l-3 -39 -61 -7 c-38 -4 -85 -19 -123 -37 -85 -43
-83 -60 15 -147 86 -77 93 -77 132 -3 13 24 28 47 34 50 11 7 75 -5 86 -16 8
-7 -36 -42 -81 -65 -17 -8 -32 -20 -34 -27 -2 -6 22 -29 54 -51 32 -22 76 -58
98 -81 44 -46 82 -53 138 -25 17 10 66 21 107 25 149 16 193 43 240 145 l29
64 78 0 c68 0 142 11 236 35 27 7 27 7 27 -43 0 -59 32 -105 87 -128 42 -18
69 -18 134 3 76 23 79 27 79 94 0 46 5 63 23 85 22 25 26 26 60 15 20 -7 52
-23 72 -36 l35 -24 0 38 c0 59 21 75 125 95 67 13 103 26 140 51 94 64 93 61
87 165 -4 81 -2 94 16 113 37 41 42 64 42 187 0 149 -15 187 -88 224 -90 46
-122 104 -122 224 0 69 -4 88 -21 111 -17 23 -20 37 -14 69 3 23 13 46 21 53
8 6 14 19 14 28 0 9 23 37 50 62 l50 46 2 79 c0 43 0 86 -1 94 -12 80 -18 107
-24 117 -11 17 -138 5 -154 -14 -7 -9 -13 -11 -18 -4 -3 6 -22 11 -42 11 -20
0 -44 7 -54 16 -14 12 -19 13 -26 2z"/>
<path d="M3926 1477 c-22 -24 -50 -59 -61 -78 -11 -19 -43 -49 -72 -67 -43
-28 -53 -40 -62 -77 -19 -76 -85 -105 -240 -105 -43 0 -81 -3 -84 -7 -4 -3 11
-25 33 -49 41 -45 65 -110 54 -147 -3 -12 -17 -42 -30 -66 -20 -36 -24 -58
-24 -126 0 -71 3 -87 25 -119 14 -20 25 -43 25 -51 0 -8 5 -15 11 -15 5 0 16
-15 24 -34 17 -40 29 -46 69 -35 22 7 34 5 47 -7 16 -15 21 -14 52 10 19 14
40 26 48 26 8 0 28 9 44 20 36 24 78 25 163 5 62 -15 63 -15 139 16 103 41
236 128 267 176 25 37 25 41 17 143 -5 58 -14 118 -20 133 -6 16 -11 47 -11
70 -1 23 -7 53 -15 67 -8 14 -14 44 -15 66 0 87 -8 103 -67 131 -30 15 -70 45
-89 67 -32 37 -35 38 -52 23 -27 -25 -35 -22 -81 28 -23 25 -44 45 -48 45 -3
0 -24 -19 -47 -43z"/>
<path d="M2335 1213 c-27 -7 -35 -21 -35 -65 0 -20 -5 -40 -10 -43 -6 -4 -35
5 -65 19 -94 45 -125 30 -125 -61 0 -39 -5 -62 -17 -75 -15 -17 -15 -19 2 -38
17 -18 17 -20 1 -26 -10 -4 -53 -4 -97 0 -76 6 -81 5 -104 -18 -22 -22 -25
-34 -25 -96 0 -136 48 -180 199 -180 43 0 121 7 174 14 139 21 166 40 167 114
0 36 4 44 26 52 14 6 43 10 64 10 37 0 39 -2 54 -47 9 -26 16 -55 16 -66 0
-32 75 -180 107 -210 16 -15 54 -43 84 -62 l54 -35 15 22 c43 61 78 88 114 88
33 0 36 3 36 28 0 16 8 32 20 40 15 9 20 23 20 53 0 54 -10 71 -91 155 -67 70
-108 138 -109 180 0 11 9 47 20 79 11 32 20 61 20 64 0 3 -44 5 -98 3 l-98 -3
-46 41 -46 40 -36 -21 c-29 -17 -39 -19 -51 -9 -8 7 -15 20 -15 30 0 25 -67
37 -125 23z"/>
<path d="M2982 1111 c-62 -62 -75 -70 -92 -61 -17 9 -21 6 -35 -26 -8 -20 -15
-45 -15 -56 0 -36 53 -123 115 -188 74 -78 85 -96 85 -149 0 -30 -6 -44 -25
-59 -28 -22 -33 -57 -9 -66 9 -3 40 -6 70 -6 50 0 54 2 59 28 12 57 14 57 136
56 92 0 116 3 126 15 17 22 16 42 -4 56 -21 16 -25 32 -30 132 -4 76 -2 86 23
129 20 34 28 61 28 95 0 58 -8 68 -33 45 -17 -16 -21 -14 -67 24 -27 22 -53
40 -58 40 -6 0 -23 12 -38 27 -24 23 -39 28 -96 31 l-67 4 -73 -71z"/>
<path d="M3182 544 c-12 -8 -24 -30 -28 -49 -10 -55 -21 -58 -143 -51 -106 7
-109 7 -137 -17 l-29 -25 21 -24 c20 -21 61 -124 56 -140 -1 -4 8 -14 21 -22
18 -11 50 -12 172 -5 83 4 200 8 262 8 153 1 159 4 166 81 3 34 10 67 16 73 6
6 11 23 11 39 0 21 -8 31 -31 43 -28 15 -32 15 -48 1 -10 -9 -22 -16 -28 -16
-14 0 -50 42 -55 64 -3 20 -5 21 -108 32 -36 4 -72 10 -81 15 -10 5 -24 2 -37
-7z"/>
</g>
</svg>
